<svg width="454" height="389" viewBox="0 0 454 389" fill="none" xmlns="http://www.w3.org/2000/svg">
<path d="M379.334 59.8146L344.311 60.2346C342.665 50.2587 337.134 24.0835 342.115 16.9439C342.342 14.2568 343.402 11.7809 345.075 10.0318C346.748 8.28272 348.904 7.39511 351.095 7.55376C356.523 -2.9058 365.565 -1.33536 371.676 5.19709C377.826 7.80933 380.145 12.4501 379.334 18.7479C383.888 23.6555 384.729 29.6263 382.684 36.4229L379.334 59.8146Z" fill="#2F2E41"/>
<path d="M375.962 86.3723L350.694 82.0656L345.641 72.9738C352.602 67.2897 355.066 59.3505 351.861 48.5695L369.354 48.0909C368.534 57.6916 371.113 65.1251 378.295 69.6242L375.962 86.3723Z" fill="#FFB9B9"/>
<path d="M344.72 366.919L343.754 383.178C343.711 383.914 343.795 384.653 344.002 385.345C344.21 386.037 344.535 386.667 344.956 387.192C345.377 387.717 345.885 388.125 346.445 388.389C347.005 388.653 347.604 388.766 348.202 388.722L354.987 388.216C355.301 388.192 355.607 388.084 355.884 387.898C356.16 387.713 356.4 387.454 356.586 387.142C356.772 386.829 356.9 386.47 356.961 386.089C357.022 385.709 357.014 385.317 356.937 384.94L353.171 366.398L344.72 366.919Z" fill="#E6E6E6"/>
<path d="M366.685 366.398L362.919 384.941C362.842 385.317 362.834 385.709 362.895 386.089C362.955 386.47 363.083 386.829 363.27 387.142C363.456 387.454 363.696 387.713 363.972 387.898C364.249 388.084 364.555 388.192 364.869 388.216L371.654 388.722C372.252 388.766 372.851 388.653 373.411 388.389C373.971 388.125 374.479 387.717 374.9 387.192C375.321 386.667 375.646 386.037 375.853 385.345C376.061 384.653 376.145 383.914 376.102 383.178L375.135 366.919L366.685 366.398Z" fill="#E6E6E6"/>
<path d="M375.574 369.176L366.418 368.045L357.303 248.111L353.858 367.658L344.863 367.262L329.703 201.695H387.624L375.574 369.176Z" fill="#8282F3"/>
<path d="M361.579 56.2257C371.24 56.2257 379.072 46.585 379.072 34.6925C379.072 22.8 371.24 13.1592 361.579 13.1592C351.918 13.1592 344.086 22.8 344.086 34.6925C344.086 46.585 351.918 56.2257 361.579 56.2257Z" fill="#FFB9B9"/>
<path d="M396.176 205.523L325.427 206.48C335.926 157.277 342.207 111.573 331.258 80.1516L348.751 69.6242C357.185 80.4538 366.579 79.3373 376.74 68.6672L393.455 73.9309C390.592 115.135 391.875 159.264 396.176 205.523Z" fill="#8282F3"/>
<path d="M305.99 154.8L349.917 176.333L359.738 179.889C360.177 180.048 360.638 180.096 361.093 180.031C361.548 179.965 361.987 179.787 362.384 179.507C362.782 179.227 363.129 178.851 363.405 178.401C363.682 177.952 363.881 177.438 363.992 176.891C364.187 175.933 364.1 174.92 363.746 174.033C363.392 173.146 362.794 172.442 362.058 172.046L351.861 168.199L321.151 146.187L327.565 125.371L314.153 116.519L305.99 154.8Z" fill="#FFB9B9"/>
<path d="M306.379 115.562C314.736 119.575 321.383 126.425 326.593 135.66L342.92 106.47L331.258 80.1516L306.379 115.562Z" fill="#8282F3"/>
<path d="M381.295 31.2026C374.195 28.9507 367.214 28.6416 360.429 31.4978C356.106 34.0749 350.915 33.8374 345.142 31.7141V10.2304L376.308 11.2534L381.295 31.2026Z" fill="#2F2E41"/>
<path d="M349.771 129.711C348.398 129.713 347.081 130.386 346.109 131.581C345.138 132.777 344.592 134.398 344.59 136.089L346.635 188.785C346.637 190.476 347.183 192.097 348.154 193.293C349.126 194.488 350.443 195.161 351.816 195.163H375.197C376.571 195.161 377.888 194.488 378.859 193.293C379.83 192.097 380.377 190.476 380.378 188.785L382.423 136.089C382.422 134.398 381.876 132.777 380.904 131.581C379.933 130.386 378.616 129.713 377.242 129.711H349.771Z" fill="#3F3D56"/>
<path d="M416.11 150.819L377.822 169.586L374.933 171.002C374.841 171.046 374.749 171.084 374.652 171.122L364.974 174.627C363.737 175.074 362.024 173.022 361.022 171.606C360.526 170.924 360.245 170.045 360.23 169.13C360.215 168.214 360.467 167.322 360.94 166.616C361.074 166.426 361.221 166.251 361.38 166.093C361.753 165.736 362.192 165.498 362.658 165.401L372.326 163.06C372.673 162.976 373.006 162.823 373.313 162.607L377.822 159.372L401.233 142.594C401.884 142.128 402.379 141.393 402.631 140.519C402.883 139.646 402.875 138.69 402.608 137.823L398.14 123.317C397.866 122.429 397.863 121.449 398.133 120.56C398.403 119.671 398.927 118.933 399.607 118.484L407.01 113.6C407.433 113.32 407.902 113.163 408.382 113.139C408.861 113.115 409.339 113.225 409.779 113.461C410.219 113.698 410.61 114.054 410.922 114.503C411.234 114.952 411.459 115.483 411.581 116.054L418.007 146.187C418.205 147.111 418.121 148.092 417.772 148.946C417.422 149.799 416.831 150.465 416.11 150.819Z" fill="#FFB9B9"/>
<path d="M418.334 110.298C409.977 114.312 403.329 121.161 398.12 130.396L381.793 101.206L393.455 73.9309L418.334 110.298Z" fill="#8282F3"/>
<path d="M373.221 53.8582C365.568 57.7766 357.544 57.6175 349.191 53.8582C351.622 48.7517 347.989 44.7523 346.124 39.5975L377.311 38.4566C374.926 42.9348 371.407 48.2256 373.221 53.8582Z" fill="white"/>
<path d="M376.981 39.3087L376.619 38.8637L377.13 38.2344L380.184 33.8466L380.573 34.2557L377.505 38.6611L376.981 39.3087Z" fill="white"/>
<path d="M343.987 36.6415L343.659 37.1252L346.727 40.2719L347.054 39.7882L343.987 36.6415Z" fill="white"/>
<path d="M377.862 43.0086L372.492 53.3918L372.924 53.7298L378.293 43.3466L377.862 43.0086Z" fill="white"/>
<path d="M344.55 43.0078L344.119 43.3458L349.487 53.7299L349.918 53.392L344.55 43.0078Z" fill="white"/>
<path d="M378.845 158.482V169.883L375.62 171.464C375.517 171.513 375.415 171.555 375.306 171.597L364.503 175.51C363.122 176.009 361.21 173.719 360.092 172.138C359.538 171.377 359.224 170.396 359.207 169.374C359.191 168.352 359.472 167.356 360 166.568C360.15 166.356 360.314 166.161 360.491 165.984C360.908 165.586 361.398 165.32 361.918 165.212L372.71 162.598C373.097 162.505 373.469 162.334 373.811 162.093L378.845 158.482Z" fill="white"/>
<path d="M383.517 117.814H381.67C381.67 85.648 376.29 63.232 371.046 63.232L370.585 60.9577C375.287 60.9577 378.284 70.2871 379.971 78.1137C382.258 88.724 383.517 102.823 383.517 117.814Z" fill="#3F3D56"/>
<path d="M341.024 109.854H339.176C339.176 80.3952 344.594 62.0948 352.571 62.0948L352.109 64.3691C346.591 64.3691 341.024 78.4335 341.024 109.854Z" fill="#3F3D56"/>
<path d="M382.594 124.068C385.145 124.068 387.212 121.523 387.212 118.383C387.212 115.242 385.145 112.697 382.594 112.697C380.043 112.697 377.975 115.242 377.975 118.383C377.975 121.523 380.043 124.068 382.594 124.068Z" fill="#3F3D56"/>
<path d="M333.634 123.5H331.786C331.786 115.348 335.516 108.717 340.1 108.717V110.991C336.534 110.991 333.634 116.602 333.634 123.5Z" fill="#3F3D56"/>
<path d="M348.414 123.5H346.566C346.566 116.602 343.666 110.991 340.1 110.991V108.717C344.684 108.717 348.414 115.348 348.414 123.5Z" fill="#3F3D56"/>
<path d="M347.49 126.342C348.511 126.342 349.338 125.324 349.338 124.068C349.338 122.812 348.511 121.794 347.49 121.794C346.47 121.794 345.643 122.812 345.643 124.068C345.643 125.324 346.47 126.342 347.49 126.342Z" fill="#3F3D56"/>
<path d="M332.71 126.342C333.73 126.342 334.557 125.324 334.557 124.068C334.557 122.812 333.73 121.794 332.71 121.794C331.69 121.794 330.862 122.812 330.862 124.068C330.862 125.324 331.69 126.342 332.71 126.342Z" fill="#3F3D56"/>
<path d="M110.059 47.6396L77.6118 54.4035C76.8102 54.5718 75.9864 54.3682 75.2998 53.8319C74.6132 53.2957 74.1126 52.465 73.8948 51.5006C71.5505 41.0853 66.6492 27.4982 71.4079 20.6775C71.6503 17.8081 72.7825 15.1643 74.5686 13.2965C76.3547 11.4288 78.6573 10.4809 80.9968 10.6503C86.7934 -0.518825 96.4483 1.15815 102.974 8.13378C109.541 10.9232 112.017 15.8789 111.151 22.6039C113.989 25.6609 115.476 29.1042 115.79 32.8835C115.938 34.9866 115.721 37.1046 115.152 39.0961C114.583 41.0876 113.675 42.9069 112.49 44.4324L110.059 47.6396Z" fill="#2F2E41"/>
<path d="M105.015 79.0847L79.8605 77.2633C82.3256 70.2984 83.3104 63.5916 82.3266 57.2278H101.069C101.027 62.1139 103.002 70.566 105.015 79.0847Z" fill="#9F616A"/>
<path d="M74.7359 365.2L73.7042 382.562C73.6575 383.348 73.7479 384.137 73.9692 384.877C74.1905 385.616 74.5378 386.289 74.9876 386.849C75.4374 387.41 75.9794 387.846 76.5772 388.127C77.1751 388.409 77.8149 388.53 78.4539 388.482L85.6986 387.942C86.0342 387.917 86.3613 387.801 86.6565 387.603C86.9518 387.405 87.2079 387.129 87.4067 386.795C87.6055 386.461 87.7422 386.078 87.807 385.671C87.8718 385.265 87.8631 384.846 87.7815 384.445L83.7601 364.645L74.7359 365.2Z" fill="#E6E6E6"/>
<path d="M98.1902 364.645L94.1688 384.445C94.0872 384.846 94.0785 385.265 94.1433 385.671C94.2081 386.078 94.3447 386.461 94.5436 386.795C94.7424 387.129 94.9985 387.405 95.2937 387.603C95.589 387.801 95.916 387.917 96.2517 387.942L103.496 388.482C104.135 388.53 104.775 388.409 105.373 388.127C105.971 387.846 106.513 387.41 106.963 386.849C107.412 386.289 107.76 385.616 107.981 384.877C108.202 384.137 108.293 383.348 108.246 382.562L107.214 365.2L98.1902 364.645Z" fill="#E6E6E6"/>
<path d="M107.682 367.611L97.9055 366.403L88.1722 238.332L84.4936 365.99L74.8886 365.566L58.6995 188.767H120.55L107.682 367.611Z" fill="#8282F3"/>
<path d="M92.1922 64.5981C102.509 64.5981 110.872 54.3032 110.872 41.604C110.872 28.9047 102.509 18.6099 92.1922 18.6099C81.8756 18.6099 73.5124 28.9047 73.5124 41.604C73.5124 54.3032 81.8756 64.5981 92.1922 64.5981Z" fill="#9F616A"/>
<path d="M113.245 30.6194C105.664 28.9941 98.2098 28.7709 90.9637 30.8325C86.348 32.6925 80.8049 32.5211 74.6404 30.9886V15.4823L107.921 16.2207L113.245 30.6194Z" fill="#2F2E41"/>
<path d="M104.624 60.0538C96.4519 64.238 87.8833 64.0681 78.9643 60.0538C81.5596 54.6009 77.6802 50.3302 75.6887 44.8256L108.991 43.6074C106.445 48.3893 102.687 54.0391 104.624 60.0538Z" fill="white"/>
<path d="M73.3957 41.6854L73.0682 42.1692L76.3437 45.5292L76.6712 45.0454L73.3957 41.6854Z" fill="white"/>
<path d="M109.595 48.4791L103.861 59.5668L104.292 59.9048L110.026 48.8171L109.595 48.4791Z" fill="white"/>
<path d="M73.9928 48.4786L73.5614 48.8166L79.2938 59.9053L79.7253 59.5674L73.9928 48.4786Z" fill="white"/>
<path d="M56.6791 146.477L42.3757 135.548L54.574 91.5705C55.9345 87.0326 58.5403 83.2224 61.9411 80.7988L66.0503 77.8704L66.4076 122.236L56.6791 146.477Z" fill="#8282F3"/>
<path d="M118.505 167.836L116.389 145.524C116.276 133.747 117.903 122.361 121.784 111.87L123.757 79.0847L102.055 68.1562C101.989 68.7006 101.932 69.2447 101.869 69.789L91.6977 76.049L81.7784 73.274L81.8333 69.3705L62.1045 80.299C68.6288 117.637 65.0703 156.41 53.8508 202.208L79.8417 210.956L80.0578 195.594L103.221 193.557C103.46 198.541 103.652 203.437 103.763 208.224C116.833 214.148 117.282 214.049 129.191 205.568C124.449 193.294 120.694 180.522 118.505 167.836Z" fill="#8282F3"/>
<path d="M151.871 141.012L138.554 135.548L117.253 105.023L123.757 79.085L153.35 130.084L151.871 141.012Z" fill="#8282F3"/>
<path d="M110.136 164.644C110.353 165.821 110.942 166.844 111.771 167.488C112.601 168.132 113.604 168.345 114.561 168.08L125.865 164.929L124.231 156.047L112.927 159.197C111.97 159.464 111.138 160.188 110.615 161.209C110.091 162.231 109.919 163.466 110.136 164.644V164.644Z" fill="#E6E6E6"/>
<path d="M120.305 154.369L126.717 168.941C137.501 165.238 146.848 153.565 155.817 139.798L153.35 130.084L138.061 134.941L120.305 154.369Z" fill="#8282F3"/>
<path d="M36.7034 108.663L49.0126 111.368L77.1478 160.612L62.2011 156.283L36.7034 108.663Z" fill="#E6E6E6"/>
<path d="M34.5203 108.06C34.3327 108.063 34.1493 108.129 33.9893 108.249C33.8293 108.37 33.6986 108.541 33.6108 108.745C33.523 108.949 33.4814 109.179 33.4902 109.409C33.4991 109.64 33.5582 109.864 33.6612 110.057L59.9602 159.174C60.1069 159.449 60.3336 159.644 60.5935 159.719L72.8297 163.263C73.036 163.323 73.2522 163.304 73.4496 163.209C73.647 163.114 73.8163 162.947 73.935 162.731C74.0537 162.515 74.1162 162.259 74.1143 161.999C74.1123 161.738 74.0459 161.484 73.924 161.27L45.0494 110.732C44.9711 110.594 44.8715 110.477 44.7563 110.387C44.6412 110.296 44.5127 110.235 44.3782 110.206L34.7175 108.082C34.6524 108.068 34.5864 108.06 34.5203 108.06Z" fill="#3F3D56"/>
<path d="M50.9257 143.179L51.6566 152.241L63.1904 150.832C64.1667 150.713 65.0645 150.121 65.6863 149.187C66.3082 148.253 66.6031 147.053 66.5062 145.851C66.4093 144.649 65.9285 143.544 65.1697 142.778C64.4108 142.013 63.436 141.65 62.4597 141.769L50.9257 143.179Z" fill="#E6E6E6"/>
<path d="M40.8962 142.129C40.913 145.219 41.9212 148.176 43.7012 150.355C45.4813 152.534 47.8888 153.759 50.3992 153.762H52.2957L53.6764 139.599L42.2444 134.533L40.8962 142.129Z" fill="#8282F3"/>
<path d="M108.08 45.1742L107.719 44.7292L108.265 44.0571L111.527 39.3704L111.915 39.7794L108.639 44.4838L108.08 45.1742Z" fill="white"/>
<path d="M454 387.741H0V389H454V387.741Z" fill="#3F3D56"/>
<path d="M173.318 387.112H280.682V226.808C280.682 218.32 273.89 211.414 265.542 211.414H188.458C180.11 211.414 173.318 218.32 173.318 226.808V387.112Z" fill="#E6E6E6"/>
<path d="M181.498 380.483H272.502V244.607C272.502 237.412 266.745 231.558 259.669 231.558H194.331C187.255 231.558 181.498 237.412 181.498 244.607V380.483Z" fill="white"/>
<path d="M172.506 198.939C169.853 198.939 167.694 201.134 167.694 203.832V217.957C167.694 220.655 169.853 222.85 172.506 222.85H281.494C284.147 222.85 286.306 220.655 286.306 217.957V203.832C286.306 201.134 284.147 198.939 281.494 198.939H172.506Z" fill="#3F3D56"/>
<path d="M194.883 363.06C193.637 363.065 192.443 363.676 191.562 364.76C190.681 365.845 190.185 367.314 190.181 368.848C190.185 370.382 190.681 371.851 191.562 372.936C192.443 374.02 193.637 374.631 194.883 374.636H203.684V363.06H194.883Z" fill="#3F3D56"/>
<path d="M211.762 363.06H203.202V374.636H211.762C213.007 374.631 214.201 374.02 215.082 372.936C215.963 371.851 216.46 370.382 216.463 368.848C216.46 367.314 215.963 365.845 215.082 364.76C214.201 363.676 213.007 363.065 211.762 363.06Z" fill="#8282F3"/>
<path opacity="0.2" d="M214.83 364.478C215.571 365.524 215.98 366.866 215.981 368.254C215.978 369.788 215.481 371.258 214.6 372.342C213.719 373.427 212.525 374.038 211.279 374.042H203.202V374.636H211.762C213.007 374.631 214.201 374.02 215.082 372.936C215.963 371.851 216.46 370.382 216.463 368.848C216.462 368.018 216.316 367.198 216.034 366.443C215.752 365.689 215.341 365.019 214.83 364.478Z" fill="black"/>
<path d="M234.598 275.88C233.741 274.767 232.561 274.117 231.315 274.072C230.07 274.026 228.861 274.59 227.951 275.638C227.047 276.694 226.519 278.146 226.482 279.679C226.446 281.212 226.903 282.701 227.755 283.82L233.792 291.703L240.635 283.763L234.598 275.88Z" fill="#3F3D56"/>
<path d="M246.176 290.998L240.304 283.331L233.461 291.271L239.333 298.939C240.19 300.052 241.37 300.702 242.616 300.747C243.861 300.792 245.07 300.229 245.979 299.18C246.883 298.125 247.412 296.672 247.448 295.139C247.485 293.606 247.028 292.118 246.176 290.998Z" fill="#8282F3"/>
<path opacity="0.2" d="M247.442 294.719C247.332 296.101 246.82 297.388 246 298.341C245.09 299.39 243.881 299.953 242.636 299.908C241.39 299.863 240.21 299.212 239.353 298.1L233.812 290.864L233.461 291.271L239.333 298.939C240.19 300.052 241.37 300.702 242.616 300.747C243.861 300.792 245.07 300.229 245.979 299.18C246.469 298.61 246.854 297.916 247.106 297.146C247.359 296.376 247.473 295.548 247.442 294.719Z" fill="black"/>
<path d="M209.546 294.131C208.689 293.018 207.509 292.368 206.263 292.323C205.018 292.277 203.809 292.841 202.9 293.889C201.996 294.945 201.467 296.397 201.431 297.93C201.394 299.463 201.852 300.952 202.703 302.071L208.74 309.954L215.583 302.014L209.546 294.131Z" fill="#3F3D56"/>
<path d="M221.124 309.249L215.252 301.582L208.41 309.522L214.281 317.19C215.138 318.302 216.318 318.953 217.564 318.998C218.809 319.043 220.018 318.48 220.928 317.431C221.832 316.376 222.36 314.923 222.397 313.39C222.433 311.857 221.976 310.369 221.124 309.249Z" fill="#8282F3"/>
<path opacity="0.2" d="M222.39 312.97C222.28 314.352 221.768 315.638 220.948 316.592C220.039 317.641 218.829 318.204 217.584 318.159C216.339 318.113 215.158 317.463 214.301 316.35L208.76 309.115L208.41 309.522L214.281 317.19C215.138 318.302 216.318 318.953 217.564 318.998C218.809 319.043 220.018 318.48 220.928 317.431C221.418 316.861 221.802 316.167 222.054 315.397C222.307 314.627 222.421 313.799 222.39 312.97Z" fill="black"/>
<path d="M234.598 311.123C233.741 310.01 232.561 309.36 231.315 309.315C230.07 309.27 228.861 309.833 227.951 310.881C227.047 311.937 226.519 313.39 226.482 314.922C226.446 316.455 226.903 317.944 227.755 319.063L233.792 326.946L240.635 319.006L234.598 311.123Z" fill="#3F3D56"/>
<path d="M246.176 326.242L240.304 318.574L233.461 326.515L239.333 334.182C240.19 335.295 241.37 335.945 242.616 335.99C243.861 336.035 245.07 335.472 245.979 334.423C246.883 333.368 247.412 331.915 247.448 330.382C247.485 328.849 247.028 327.361 246.176 326.242Z" fill="#8282F3"/>
<path opacity="0.2" d="M247.442 329.962C247.332 331.344 246.82 332.631 246 333.584C245.09 334.633 243.881 335.196 242.636 335.151C241.39 335.106 240.21 334.456 239.353 333.343L233.812 326.107L233.461 326.514L239.333 334.182C240.19 335.295 241.37 335.945 242.616 335.99C243.861 336.035 245.07 335.472 245.979 334.423C246.469 333.853 246.854 333.159 247.106 332.389C247.359 331.619 247.473 330.792 247.442 329.962Z" fill="black"/>
<path d="M249.881 347.289C250.775 346.221 251.288 344.76 251.31 343.227C251.332 341.693 250.859 340.212 249.996 339.105C249.128 338.005 247.942 337.373 246.696 337.346C245.45 337.32 244.247 337.901 243.348 338.963L237.018 346.49L243.551 354.816L249.881 347.289Z" fill="#3F3D56"/>
<path d="M237.741 361.724L243.898 354.403L237.364 346.077L231.208 353.397C230.314 354.466 229.8 355.927 229.779 357.46C229.757 358.994 230.229 360.475 231.092 361.581C231.96 362.681 233.147 363.314 234.393 363.34C235.638 363.367 236.842 362.786 237.741 361.724Z" fill="#8282F3"/>
<path opacity="0.2" d="M234.734 363.328C233.61 363.209 232.558 362.594 231.774 361.596C230.911 360.49 230.439 359.008 230.46 357.475C230.482 355.941 230.996 354.481 231.889 353.412L237.699 346.504L237.364 346.077L231.208 353.398C230.314 354.466 229.8 355.927 229.779 357.46C229.757 358.994 230.229 360.475 231.092 361.582C231.561 362.178 232.13 362.642 232.758 362.944C233.387 363.245 234.06 363.376 234.734 363.328Z" fill="black"/>
<path d="M216.138 329.039C217.031 327.97 217.545 326.509 217.567 324.976C217.588 323.442 217.116 321.961 216.253 320.854C215.385 319.754 214.198 319.122 212.953 319.095C211.707 319.069 210.503 319.65 209.605 320.712L203.274 328.239L209.807 336.565L216.138 329.039Z" fill="#3F3D56"/>
<path d="M203.997 343.473L210.154 336.153L203.621 327.826L197.464 335.147C196.571 336.215 196.057 337.676 196.035 339.209C196.014 340.743 196.486 342.224 197.349 343.331C198.217 344.431 199.404 345.063 200.649 345.09C201.895 345.116 203.099 344.535 203.997 343.473Z" fill="#8282F3"/>
<path opacity="0.2" d="M200.991 345.077C199.866 344.958 198.815 344.343 198.031 343.345C197.168 342.239 196.696 340.757 196.717 339.224C196.739 337.69 197.253 336.23 198.146 335.161L203.956 328.253L203.621 327.826L197.464 335.147C196.571 336.215 196.057 337.676 196.035 339.209C196.014 340.743 196.486 342.224 197.349 343.331C197.818 343.927 198.386 344.391 199.015 344.693C199.643 344.994 200.317 345.125 200.991 345.077Z" fill="black"/>
<path d="M264.196 307.012C265.09 305.943 265.604 304.482 265.625 302.949C265.647 301.415 265.175 299.934 264.312 298.828C263.444 297.728 262.257 297.095 261.011 297.069C259.766 297.042 258.562 297.623 257.663 298.685L251.333 306.212L257.866 314.538L264.196 307.012Z" fill="#3F3D56"/>
<path d="M252.056 321.446L258.213 314.126L251.68 305.799L245.523 313.12C244.629 314.188 244.116 315.649 244.094 317.182C244.072 318.716 244.544 320.197 245.407 321.304C246.276 322.404 247.462 323.036 248.708 323.063C249.954 323.089 251.157 322.508 252.056 321.446Z" fill="#8282F3"/>
<path opacity="0.2" d="M249.049 323.05C247.925 322.931 246.874 322.316 246.089 321.318C245.226 320.212 244.754 318.73 244.776 317.197C244.797 315.663 245.311 314.203 246.205 313.134L252.015 306.226L251.68 305.799L245.523 313.12C244.629 314.188 244.116 315.649 244.094 317.182C244.072 318.716 244.544 320.197 245.407 321.304C245.877 321.9 246.445 322.364 247.073 322.666C247.702 322.967 248.376 323.098 249.049 323.05Z" fill="black"/>
<path d="M253.515 352.66C252.657 351.547 251.477 350.897 250.232 350.851C248.987 350.806 247.777 351.369 246.868 352.418C245.964 353.473 245.436 354.926 245.399 356.459C245.362 357.992 245.82 359.481 246.672 360.6L252.709 368.483L259.552 360.543L253.515 352.66Z" fill="#3F3D56"/>
<path d="M265.092 367.778L259.221 360.111L252.378 368.051L258.249 375.718C259.107 376.831 260.287 377.481 261.532 377.527C262.778 377.572 263.987 377.009 264.896 375.96C265.8 374.905 266.328 373.452 266.365 371.919C266.402 370.386 265.944 368.897 265.092 367.778Z" fill="#8282F3"/>
<path opacity="0.2" d="M266.359 371.499C266.249 372.881 265.736 374.167 264.916 375.121C264.007 376.169 262.798 376.733 261.552 376.687C260.307 376.642 259.127 375.992 258.27 374.879L252.729 367.644L252.378 368.051L258.249 375.718C259.107 376.831 260.287 377.481 261.532 377.527C262.778 377.572 263.987 377.009 264.896 375.96C265.386 375.389 265.77 374.696 266.023 373.926C266.275 373.156 266.39 372.328 266.359 371.499Z" fill="black"/>
<path d="M220.283 352.03C219.425 350.917 218.245 350.267 217 350.222C215.755 350.177 214.545 350.74 213.636 351.789C212.732 352.844 212.204 354.297 212.167 355.83C212.13 357.363 212.588 358.851 213.44 359.97L219.477 367.854L226.32 359.914L220.283 352.03Z" fill="#3F3D56"/>
<path d="M231.86 367.149L225.989 359.482L219.146 367.422L225.017 375.089C225.875 376.202 227.055 376.852 228.3 376.897C229.546 376.943 230.755 376.379 231.664 375.331C232.568 374.275 233.096 372.823 233.133 371.29C233.17 369.757 232.712 368.268 231.86 367.149Z" fill="#8282F3"/>
<path opacity="0.2" d="M233.127 370.869C233.017 372.252 232.504 373.538 231.684 374.491C230.775 375.54 229.566 376.103 228.32 376.058C227.075 376.013 225.895 375.363 225.038 374.25L219.497 367.015L219.146 367.422L225.017 375.089C225.875 376.202 227.055 376.852 228.3 376.897C229.546 376.943 230.755 376.379 231.664 375.331C232.154 374.76 232.538 374.066 232.791 373.296C233.043 372.527 233.158 371.699 233.127 370.869Z" fill="black"/>
<path d="M229.637 331.266C229.637 333.19 229.098 335.056 228.109 336.546C227.12 338.037 225.744 339.061 224.212 339.446C223.317 339.669 222.395 339.669 221.5 339.446C219.968 339.061 218.592 338.036 217.604 336.546C216.615 335.055 216.075 333.19 216.075 331.266C216.075 329.342 216.615 327.477 217.604 325.986C218.592 324.496 219.968 323.471 221.5 323.086C222.395 322.863 223.317 322.863 224.212 323.086C225.744 323.471 227.12 324.495 228.109 325.986C229.098 327.477 229.637 329.342 229.637 331.266Z" fill="#8282F3"/>
<path opacity="0.2" d="M224.212 323.086V339.446C223.317 339.669 222.395 339.669 221.5 339.446V323.086C222.395 322.863 223.317 322.863 224.212 323.086Z" fill="black"/>
<path d="M232.705 297.911C232.705 299.835 232.165 301.701 231.177 303.191C230.188 304.682 228.811 305.706 227.28 306.091C226.385 306.314 225.463 306.314 224.568 306.091C223.036 305.706 221.66 304.681 220.671 303.191C219.683 301.7 219.143 299.835 219.143 297.911C219.143 295.987 219.683 294.122 220.671 292.631C221.66 291.141 223.036 290.116 224.568 289.731C225.463 289.508 226.385 289.508 227.28 289.731C228.812 290.116 230.188 291.14 231.177 292.631C232.165 294.121 232.705 295.987 232.705 297.911Z" fill="#8282F3"/>
<path opacity="0.2" d="M227.28 289.731V306.091C226.385 306.314 225.463 306.314 224.568 306.091V289.731C225.463 289.508 226.385 289.508 227.28 289.731Z" fill="black"/>
<path d="M232.705 345.741C232.705 347.665 232.165 349.531 231.177 351.021C230.188 352.512 228.811 353.536 227.28 353.921C226.385 354.144 225.463 354.144 224.568 353.921C223.036 353.536 221.66 352.511 220.671 351.021C219.683 349.53 219.143 347.665 219.143 345.741C219.143 343.817 219.683 341.952 220.671 340.461C221.66 338.971 223.036 337.946 224.568 337.561C225.463 337.338 226.385 337.338 227.28 337.561C228.812 337.946 230.188 338.97 231.177 340.461C232.165 341.952 232.705 343.817 232.705 345.741Z" fill="#8282F3"/>
<path opacity="0.2" d="M227.28 337.561V353.921C226.385 354.144 225.463 354.144 224.568 353.921V337.561C225.463 337.338 226.385 337.338 227.28 337.561Z" fill="black"/>
<path d="M249.576 369.027C249.577 370.951 249.037 372.816 248.048 374.307C247.06 375.798 245.683 376.822 244.151 377.207C243.256 377.429 242.334 377.429 241.439 377.207C239.908 376.822 238.531 375.797 237.543 374.306C236.554 372.816 236.014 370.951 236.014 369.027C236.014 367.103 236.554 365.237 237.543 363.747C238.531 362.256 239.908 361.232 241.439 360.847C242.334 360.624 243.256 360.624 244.151 360.847C245.683 361.231 247.06 362.256 248.048 363.747C249.037 365.237 249.577 367.102 249.576 369.027Z" fill="#8282F3"/>
<path opacity="0.2" d="M244.151 360.847V377.207C243.256 377.429 242.334 377.429 241.439 377.207V360.847C242.334 360.624 243.256 360.624 244.151 360.847Z" fill="black"/>
<path d="M264.48 326.184C265.606 327.519 266.323 329.292 266.508 331.202C266.694 333.113 266.338 335.044 265.5 336.668C265.009 337.616 264.369 338.434 263.618 339.072C262.33 340.162 260.775 340.671 259.218 340.513C257.66 340.355 256.194 339.539 255.069 338.203C253.943 336.868 253.227 335.095 253.041 333.185C252.855 331.274 253.211 329.343 254.049 327.719C254.54 326.771 255.18 325.954 255.931 325.315C257.219 324.224 258.774 323.715 260.332 323.874C261.889 324.032 263.355 324.848 264.48 326.184Z" fill="#8282F3"/>
<path opacity="0.2" d="M255.931 325.315L265.5 336.668C265.009 337.616 264.369 338.434 263.618 339.072L254.049 327.719C254.54 326.771 255.18 325.954 255.931 325.315Z" fill="black"/>
<path d="M266.525 344.435C267.651 345.77 268.368 347.543 268.553 349.453C268.739 351.364 268.383 353.295 267.545 354.919C267.054 355.867 266.414 356.685 265.663 357.323C264.375 358.413 262.82 358.922 261.263 358.764C259.705 358.606 258.239 357.79 257.114 356.454C255.988 355.119 255.272 353.346 255.086 351.436C254.9 349.525 255.256 347.594 256.094 345.97C256.585 345.022 257.225 344.205 257.976 343.566C259.264 342.475 260.819 341.966 262.377 342.125C263.934 342.283 265.4 343.099 266.525 344.435Z" fill="#8282F3"/>
<path opacity="0.2" d="M257.976 343.566L267.545 354.919C267.054 355.867 266.414 356.685 265.663 357.323L256.094 345.97C256.585 345.022 257.225 344.205 257.976 343.566Z" fill="black"/>
<path d="M205.685 348.84C206.811 350.175 207.527 351.948 207.713 353.859C207.899 355.769 207.543 357.7 206.705 359.325C206.214 360.273 205.574 361.09 204.823 361.729C203.535 362.819 201.98 363.328 200.423 363.169C198.865 363.011 197.399 362.195 196.274 360.86C195.148 359.525 194.432 357.752 194.246 355.841C194.06 353.931 194.416 352 195.254 350.375C195.745 349.427 196.385 348.61 197.136 347.971C198.424 346.881 199.979 346.372 201.536 346.53C203.094 346.688 204.56 347.504 205.685 348.84Z" fill="#8282F3"/>
<path opacity="0.2" d="M197.136 347.971L206.705 359.325C206.214 360.273 205.574 361.09 204.823 361.729L195.254 350.375C195.745 349.427 196.385 348.61 197.136 347.971Z" fill="black"/>
<path opacity="0.2" d="M183.798 198.939H181.242V222.224H183.798V198.939Z" fill="black"/>
<path opacity="0.2" d="M198.625 198.939H196.069V222.224H198.625V198.939Z" fill="black"/>
<path opacity="0.2" d="M213.452 198.939H210.895V222.224H213.452V198.939Z" fill="black"/>
<path opacity="0.2" d="M228.278 198.939H225.722V222.224H228.278V198.939Z" fill="black"/>
<path opacity="0.2" d="M243.105 198.939H240.548V222.224H243.105V198.939Z" fill="black"/>
<path opacity="0.2" d="M257.931 198.939H255.375V222.224H257.931V198.939Z" fill="black"/>
<path opacity="0.2" d="M272.758 198.939H270.202V222.224H272.758V198.939Z" fill="black"/>
</svg>
